<svg width="34" height="34" viewBox="0 0 34 34" fill="none" xmlns="http://www.w3.org/2000/svg">
<path d="M22.6525 6.78906H24.9222C26.1706 6.78906 27.1919 7.81111 27.1919 9.06027V11.3315C27.1919 12.5807 26.1706 13.6027 24.9222 13.6027H22.6525C21.4042 13.6027 20.3828 12.5807 20.3828 11.3315V9.06027C20.3828 7.81111 21.4042 6.78906 22.6525 6.78906Z" fill="#BCF42E"/>
<path d="M20.3793 2.27121V4.54242C20.3793 5.79158 19.358 6.81363 18.1096 6.81363H15.8399C14.5916 6.81363 13.5703 5.79158 13.5703 4.54242V2.27121C13.5703 1.02204 14.5916 0 15.8399 0H18.1096C19.358 0 20.3793 1.02204 20.3793 2.27121Z" fill="#BCF42E"/>
<path d="M27.1875 15.8768V18.148C27.1875 19.3971 28.2089 20.4192 29.4572 20.4192H31.7269C32.9752 20.4192 33.9966 19.3971 33.9966 18.148V15.8768C33.9966 14.6276 32.9752 13.6055 31.7269 13.6055H29.4572C28.2089 13.6055 27.1875 14.6276 27.1875 15.8768Z" fill="#BCF42E"/>
<path d="M11.3285 6.78906H9.05876C7.81043 6.78906 6.78906 7.81111 6.78906 9.06027V11.3315C6.78906 12.5807 7.81043 13.6027 9.05876 13.6027H11.3285C12.5768 13.6027 13.5982 12.5807 13.5982 11.3315V9.06027C13.5982 7.81111 12.5768 6.78906 11.3285 6.78906Z" fill="#BCF42E"/>
<path d="M6.78638 15.8768V18.148C6.78638 19.3971 5.76502 20.4192 4.51669 20.4192H2.26969C1.02136 20.4192 0 19.3971 0 18.148V15.8768C0 14.6276 1.02136 13.6055 2.26969 13.6055H4.53939C5.78772 13.6055 6.80908 14.6276 6.80908 15.8768H6.78638Z" fill="#BCF42E"/>
<path d="M22.6525 27.2081H24.9222C26.1706 27.2081 27.1919 26.186 27.1919 24.9369V22.6657C27.1919 21.4165 26.1706 20.3945 24.9222 20.3945H22.6525C21.4042 20.3945 20.3828 21.4165 20.3828 22.6657V24.9369C20.3828 26.186 21.4042 27.2081 22.6525 27.2081Z" fill="#BCF42E"/>
<path d="M20.3793 31.7299V29.4587C20.3793 28.2095 19.358 27.1875 18.1096 27.1875H15.8399C14.5916 27.1875 13.5703 28.2095 13.5703 29.4587V31.7299C13.5703 32.9791 14.5916 34.0011 15.8399 34.0011H18.1096C19.358 34.0011 20.3793 32.9791 20.3793 31.7299Z" fill="#BCF42E"/>
<path d="M11.3285 27.2081H9.05876C7.81043 27.2081 6.78906 26.186 6.78906 24.9369V22.6657C6.78906 21.4165 7.81043 20.3945 9.05876 20.3945H11.3285C12.5768 20.3945 13.5982 21.4165 13.5982 22.6657V24.9369C13.5982 26.186 12.5768 27.2081 11.3285 27.2081Z" fill="#BCF42E"/>
<path d="M18.1096 20.3957H15.8399C14.5916 20.3957 13.5703 19.3736 13.5703 18.1244V15.8532C13.5703 14.6041 14.5916 13.582 15.8399 13.582H18.1096C19.358 13.582 20.3793 14.6041 20.3793 15.8532V18.1244C20.3793 19.3736 19.358 20.3957 18.1096 20.3957Z" fill="#BCF42E"/>
</svg>
